<svg xmlns="http://www.w3.org/2000/svg" xmlns:v="https://svgstorm.com"
viewBox = "0 0 900 497"
width="900"
height="497">
<g fill="None" fill-opacity="0.0" stroke="#000000" stroke-opacity="0.00" stroke-width="0.3"><path d="
M 0.00 497.00 
L 900.00 497.00
L 900.00 0.00
L 0.00 0.00
L 0.00 497.00
M 616.00 106.00 
C 648.84 148.02 637.04 214.04 638.00 266.00 C 638.96 317.96 646.96 380.47 606.75 417.75 C 566.55 455.03 502.32 444.07 450.00 444.00 C 397.68 443.93 334.26 455.13 293.75 418.25 C 253.24 381.36 260.94 319.02 262.00 267.00 C 263.06 214.98 251.05 148.16 284.00 106.00
C 311.75 46.66 395.24 62.01 450.00 62.00 C 504.76 61.99 588.26 46.68 616.00 106.00 Z"/>
</g>
<g fill="None" fill-opacity="0.0" stroke="#2EA8DF" stroke-opacity="1.00" stroke-width="0.3"><path d="
M 284.00 106.00 
C 270.19 135.53 278.09 170.00 276.00 203.00 C 273.91 236.00 278.28 275.01 276.00 308.00 C 273.72 340.99 280.44 364.22 300.00 389.00
C 324.46 413.46 358.21 410.66 392.00 411.00 C 425.79 411.34 473.15 411.31 507.00 411.00 C 540.85 410.69 575.41 413.59 600.00 389.00
C 619.58 364.20 626.27 341.00 624.00 308.00 C 621.73 275.00 626.09 236.01 624.00 203.00 C 621.91 169.99 629.82 135.56 616.00 106.00
C 588.26 46.68 504.76 61.99 450.00 62.00 C 395.24 62.01 311.75 46.66 284.00 106.00
M 346.00 255.00 
C 358.26 326.11 445.97 362.17 505.00 320.00
C 533.08 299.94 549.16 267.80 549.00 234.00
C 557.00 234.00 565.00 234.00 573.00 234.00
C 573.30 275.17 553.52 315.18 519.00 339.00
C 484.41 363.71 432.13 369.31 393.93 351.07 C 355.72 332.84 332.44 301.30 323.00 262.00
C 303.68 181.53 376.46 99.26 460.00 110.00
C 458.43 117.84 458.07 126.01 457.00 134.00
C 390.91 125.23 331.43 190.63 346.00 255.00
M 537.00 131.00 
C 546.02 140.65 558.08 147.27 567.00 157.00
C 560.59 165.06 554.34 172.83 547.70 180.70 C 541.05 188.56 533.88 196.37 527.25 204.25 C 520.61 212.12 514.02 220.50 507.25 228.25 C 500.47 235.99 493.81 244.54 487.23 252.23 C 480.65 259.92 473.11 268.33 466.75 275.75 C 460.40 283.18 453.80 297.48 445.25 289.75 C 436.69 282.03 429.14 277.25 420.77 270.23 C 412.40 263.21 405.05 256.96 396.75 250.25 C 388.45 243.54 380.52 236.93 372.00 231.00
C 378.62 219.49 389.94 210.40 397.00 199.00
C 413.36 210.97 429.72 224.50 445.00 238.00
C 476.69 203.33 505.02 165.43 537.00 131.00 Z"/>
</g>
<g fill="None" fill-opacity="0.0" stroke="#000000" stroke-opacity="0.06" stroke-width="0.3"><path d="
M 616.00 106.00 
C 629.82 135.56 621.91 169.99 624.00 203.00 C 626.09 236.01 621.73 275.00 624.00 308.00 C 626.27 341.00 619.58 364.20 600.00 389.00
C 565.13 433.17 501.84 421.99 450.00 422.00 C 398.16 422.01 334.86 433.15 300.00 389.00
C 280.44 364.22 273.72 340.99 276.00 308.00 C 278.28 275.01 273.91 236.00 276.00 203.00 C 278.09 170.00 270.19 135.53 284.00 106.00
C 251.05 148.16 263.06 214.98 262.00 267.00 C 260.94 319.02 253.24 381.36 293.75 418.25 C 334.26 455.13 397.68 443.93 450.00 444.00 C 502.32 444.07 566.55 455.03 606.75 417.75 C 646.96 380.47 638.96 317.96 638.00 266.00 C 637.04 214.04 648.84 148.02 616.00 106.00 Z"/>
</g>
<g fill="None" fill-opacity="0.0" stroke="#7CBBE7" stroke-opacity="1.00" stroke-width="0.3"><path d="
M 323.00 262.00 
C 324.96 255.37 341.18 259.34 346.00 255.00
C 331.43 190.63 390.91 125.23 457.00 134.00
C 458.07 126.01 458.43 117.84 460.00 110.00
C 376.46 99.26 303.68 181.53 323.00 262.00 Z"/>
</g>
<g fill="None" fill-opacity="0.0" stroke="#FDFEFE" stroke-opacity="1.00" stroke-width="0.3"><path d="
M 537.00 131.00 
C 505.02 165.43 476.69 203.33 445.00 238.00
C 429.72 224.50 413.36 210.97 397.00 199.00
C 389.94 210.40 378.62 219.49 372.00 231.00
C 380.52 236.93 388.45 243.54 396.75 250.25 C 405.05 256.96 412.40 263.21 420.77 270.23 C 429.14 277.25 436.69 282.03 445.25 289.75 C 453.80 297.48 460.40 283.18 466.75 275.75 C 473.11 268.33 480.65 259.92 487.23 252.23 C 493.81 244.54 500.47 235.99 507.25 228.25 C 514.02 220.50 520.61 212.12 527.25 204.25 C 533.88 196.37 541.05 188.56 547.70 180.70 C 554.34 172.83 560.59 165.06 567.00 157.00
C 558.08 147.27 546.02 140.65 537.00 131.00 Z"/>
</g>
<g fill="None" fill-opacity="0.0" stroke="#CAE1F4" stroke-opacity="1.00" stroke-width="0.3"><path d="
M 505.00 320.00 
C 503.07 324.12 515.05 340.07 519.00 339.00
C 553.52 315.18 573.30 275.17 573.00 234.00
C 565.00 234.00 557.00 234.00 549.00 234.00
C 549.16 267.80 533.08 299.94 505.00 320.00 Z"/>
</g>
<g fill="None" fill-opacity="0.0" stroke="#A8CFEE" stroke-opacity="1.00" stroke-width="0.3"><path d="
M 323.00 262.00 
C 332.44 301.30 355.72 332.84 393.93 351.07 C 432.13 369.31 484.41 363.71 519.00 339.00
C 515.05 340.07 503.07 324.12 505.00 320.00
C 445.97 362.17 358.26 326.11 346.00 255.00
C 341.18 259.34 324.96 255.37 323.00 262.00 Z"/>
</g>
<g fill="None" fill-opacity="0.0" stroke="#000000" stroke-opacity="0.13" stroke-width="0.3"><path d="
M 600.00 389.00 
C 575.41 413.59 540.85 410.69 507.00 411.00 C 473.15 411.31 425.79 411.34 392.00 411.00 C 358.21 410.66 324.46 413.46 300.00 389.00
C 334.86 433.15 398.16 422.01 450.00 422.00 C 501.84 421.99 565.13 433.17 600.00 389.00 Z"/>
</g>
<g fill="#000000" fill-opacity="0.00" stroke="None">
<path d="
M 0.00 497.00 
L 900.00 497.00
L 900.00 0.00
L 0.00 0.00
L 0.00 497.00
M 616.00 106.00 
C 648.84 148.02 637.04 214.04 638.00 266.00 C 638.96 317.96 646.96 380.47 606.75 417.75 C 566.55 455.03 502.32 444.07 450.00 444.00 C 397.68 443.93 334.26 455.13 293.75 418.25 C 253.24 381.36 260.94 319.02 262.00 267.00 C 263.06 214.98 251.05 148.16 284.00 106.00
C 311.75 46.66 395.24 62.01 450.00 62.00 C 504.76 61.99 588.26 46.68 616.00 106.00 Z"/>
</g>
<g fill="#2EA8DF" fill-opacity="1.00" stroke="None">
<path d="
M 284.00 106.00 
C 270.19 135.53 278.09 170.00 276.00 203.00 C 273.91 236.00 278.28 275.01 276.00 308.00 C 273.72 340.99 280.44 364.22 300.00 389.00
C 324.46 413.46 358.21 410.66 392.00 411.00 C 425.79 411.34 473.15 411.31 507.00 411.00 C 540.85 410.69 575.41 413.59 600.00 389.00
C 619.58 364.20 626.27 341.00 624.00 308.00 C 621.73 275.00 626.09 236.01 624.00 203.00 C 621.91 169.99 629.82 135.56 616.00 106.00
C 588.26 46.68 504.76 61.99 450.00 62.00 C 395.24 62.01 311.75 46.66 284.00 106.00
M 346.00 255.00 
C 358.26 326.11 445.97 362.17 505.00 320.00
C 533.08 299.94 549.16 267.80 549.00 234.00
C 557.00 234.00 565.00 234.00 573.00 234.00
C 573.30 275.17 553.52 315.18 519.00 339.00
C 484.41 363.71 432.13 369.31 393.93 351.07 C 355.72 332.84 332.44 301.30 323.00 262.00
C 303.68 181.53 376.46 99.26 460.00 110.00
C 458.43 117.84 458.07 126.01 457.00 134.00
C 390.91 125.23 331.43 190.63 346.00 255.00
M 537.00 131.00 
C 546.02 140.65 558.08 147.27 567.00 157.00
C 560.59 165.06 554.34 172.83 547.70 180.70 C 541.05 188.56 533.88 196.37 527.25 204.25 C 520.61 212.12 514.02 220.50 507.25 228.25 C 500.47 235.99 493.81 244.54 487.23 252.23 C 480.65 259.92 473.11 268.33 466.75 275.75 C 460.40 283.18 453.80 297.48 445.25 289.75 C 436.69 282.03 429.14 277.25 420.77 270.23 C 412.40 263.21 405.05 256.96 396.75 250.25 C 388.45 243.54 380.52 236.93 372.00 231.00
C 378.62 219.49 389.94 210.40 397.00 199.00
C 413.36 210.97 429.72 224.50 445.00 238.00
C 476.69 203.33 505.02 165.43 537.00 131.00 Z"/>
</g>
<g fill="#000000" fill-opacity="0.06" stroke="None">
<path d="
M 616.00 106.00 
C 629.82 135.56 621.91 169.99 624.00 203.00 C 626.09 236.01 621.73 275.00 624.00 308.00 C 626.27 341.00 619.58 364.20 600.00 389.00
C 565.13 433.17 501.84 421.99 450.00 422.00 C 398.16 422.01 334.86 433.15 300.00 389.00
C 280.44 364.22 273.72 340.99 276.00 308.00 C 278.28 275.01 273.91 236.00 276.00 203.00 C 278.09 170.00 270.19 135.53 284.00 106.00
C 251.05 148.16 263.06 214.98 262.00 267.00 C 260.94 319.02 253.24 381.36 293.75 418.25 C 334.26 455.13 397.68 443.93 450.00 444.00 C 502.32 444.07 566.55 455.03 606.75 417.75 C 646.96 380.47 638.96 317.96 638.00 266.00 C 637.04 214.04 648.84 148.02 616.00 106.00 Z"/>
</g>
<g fill="#7CBBE7" fill-opacity="1.00" stroke="None">
<path d="
M 323.00 262.00 
C 324.96 255.37 341.18 259.34 346.00 255.00
C 331.43 190.63 390.91 125.23 457.00 134.00
C 458.07 126.01 458.43 117.84 460.00 110.00
C 376.46 99.26 303.68 181.53 323.00 262.00 Z"/>
</g>
<g fill="#FDFEFE" fill-opacity="1.00" stroke="None">
<path d="
M 537.00 131.00 
C 505.02 165.43 476.69 203.33 445.00 238.00
C 429.72 224.50 413.36 210.97 397.00 199.00
C 389.94 210.40 378.62 219.49 372.00 231.00
C 380.52 236.93 388.45 243.54 396.75 250.25 C 405.05 256.96 412.40 263.21 420.77 270.23 C 429.14 277.25 436.69 282.03 445.25 289.75 C 453.80 297.48 460.40 283.18 466.75 275.75 C 473.11 268.33 480.65 259.92 487.23 252.23 C 493.81 244.54 500.47 235.99 507.25 228.25 C 514.02 220.50 520.61 212.12 527.25 204.25 C 533.88 196.37 541.05 188.56 547.70 180.70 C 554.34 172.83 560.59 165.06 567.00 157.00
C 558.08 147.27 546.02 140.65 537.00 131.00 Z"/>
</g>
<g fill="#CAE1F4" fill-opacity="1.00" stroke="None">
<path d="
M 505.00 320.00 
C 503.07 324.12 515.05 340.07 519.00 339.00
C 553.52 315.18 573.30 275.17 573.00 234.00
C 565.00 234.00 557.00 234.00 549.00 234.00
C 549.16 267.80 533.08 299.94 505.00 320.00 Z"/>
</g>
<g fill="#A8CFEE" fill-opacity="1.00" stroke="None">
<path d="
M 323.00 262.00 
C 332.44 301.30 355.72 332.84 393.93 351.07 C 432.13 369.31 484.41 363.71 519.00 339.00
C 515.05 340.07 503.07 324.12 505.00 320.00
C 445.97 362.17 358.26 326.11 346.00 255.00
C 341.18 259.34 324.96 255.37 323.00 262.00 Z"/>
</g>
<g fill="#000000" fill-opacity="0.13" stroke="None">
<path d="
M 600.00 389.00 
C 575.41 413.59 540.85 410.69 507.00 411.00 C 473.15 411.31 425.79 411.34 392.00 411.00 C 358.21 410.66 324.46 413.46 300.00 389.00
C 334.86 433.15 398.16 422.01 450.00 422.00 C 501.84 421.99 565.13 433.17 600.00 389.00 Z"/>
</g>
</svg>